<?xml version="1.0" encoding="utf-8"?>
<!-- Generator: Adobe Illustrator 24.2.1, SVG Export Plug-In . SVG Version: 6.00 Build 0)  -->
<svg version="1.1" id="Layer_1" xmlns="http://www.w3.org/2000/svg" xmlns:xlink="http://www.w3.org/1999/xlink" x="0px" y="0px"
	 viewBox="0 0 711.2 233.8" style="enable-background:new 0 0 711.2 233.8;" xml:space="preserve">
<circle style="fill:#FF8571;" cx="341" cy="140.5" r="83.7"/>
<g>
	<path style="fill:#FF8571;" d="M345.1,24.6c0.2,6.4-8.2,7-8,0.3c0.2-6.3-0.1-14.1,4.2-17.7C345.2,11.4,345,18.2,345.1,24.6z"/>
	<path style="fill:#FF8571;" d="M418.6,40.6c-3,5.3-4.7,8.8-8.8,13.3c-1.6,1.7-4.9,3.3-6.6,1.6c-1.8-1.9-0.8-4.6,1.4-6.5
		C408.7,45.5,413.1,43.3,418.6,40.6z"/>
	<path style="fill:#FF8571;" d="M261.8,39c6,3,12.8,6.9,19,10.2c2.6,1.7,3.4,4.3,1.3,6.5c-2.2,2.2-4.9,0.8-6.6-0.9
		c-4.8-5-10.3-9.4-14.3-14.9C261.4,39.6,261.6,39.3,261.8,39z"/>
	<path style="fill:#FF8571;" d="M298.4,18.1c4,4.2,7.3,9,11,13.5c1.3,1.6,2.4,4.5,0.4,5.9c-1.8,1.3-5,0.7-6.1-1.5
		c-2.7-5.5-4.8-11.3-7.1-17C297.2,18.7,297.8,18.4,298.4,18.1z"/>
	<path style="fill:#FF8571;" d="M383.2,23.8c-0.8,3.1-5.3,16-9.7,14.5c-5.4-2.7,5.5-13,8-15.6C382.1,23,382.7,23.4,383.2,23.8z"/>
</g>
<path style="fill:#48DBC1;" d="M61.2,128.3c-1.5,7.2-2.7,13.5-3.8,18.8c-1.1,5.3-2.4,10.9-3.8,16.7c-0.7,2.8-1.9,5.6-3.6,8.4
	c-1.7,2.7-3.7,5.1-6,7.1c-2.4,2.1-5,3.8-7.8,4.9c-2.8,1.2-5.7,1.8-8.7,1.8c-2.7,0-4.8-0.3-6.5-0.8c-1.7-0.5-3-1.2-3.9-2
	c-0.9-0.8-1.5-1.7-1.9-2.7c-0.3-1-0.5-2-0.5-2.9c0-1.7,0.6-3.2,1.8-4.5c1.2-1.3,2.9-2,4.9-2c1.6,0,3,0.4,4.1,1.3
	c1.2,0.8,2.1,1.8,3,3c0.8,1.1,1.5,2.4,2.2,3.8c0.6,1.4,1.1,2.5,1.5,3.3c1.2-1.3,2.4-3.4,3.5-6.1c1.1-2.7,2.1-6.3,3-10.8l7.9-37.2H38
	l1.1-4.5h8.5l0.7-3.4c0.6-2.8,1.7-5.5,3.3-8.1c1.6-2.7,3.6-5,5.9-7.1c2.2-2.1,4.8-3.7,7.7-5c2.9-1.3,5.8-1.9,8.8-1.9
	c2.6,0,4.7,0.2,6.4,0.7c1.7,0.5,3,1.2,4,2c0.9,0.8,1.5,1.7,1.8,2.7s0.5,2,0.5,2.9c0,0.6-0.1,1.4-0.4,2.2c-0.2,0.8-0.6,1.5-1.2,2.2
	c-0.6,0.7-1.3,1.3-2,1.7c-0.7,0.4-1.8,0.6-3.1,0.6c-1.6,0-2.9-0.4-4.1-1.3c-1.1-0.8-2.1-1.8-2.9-3c-0.8-1.2-1.6-2.5-2.2-3.9
	c-0.6-1.4-1.1-2.5-1.4-3.3c-1.2,1.4-2.3,3.4-3.2,6c-1,2.6-2,6.3-3,10.9l-1.1,5.1h11.1l-1.1,4.5H61.2z"/>
<path style="fill:#48DBC1;" d="M125.3,131c0,1.3-0.2,2.6-0.6,3.8c-0.4,1.2-1,2.3-1.7,3.2c-0.9,1-1.7,1.7-2.7,2.2
	c-0.9,0.5-2.3,0.7-4,0.7c-2.2,0-3.9-0.5-5.2-1.6c-1.3-1.1-1.9-2.3-1.9-3.7c0-1.3,0.2-2.3,0.5-3.3c0.4-0.9,0.9-2.3,1.7-4.1
	c-2,0.8-3.7,1.8-5.1,3c-1.4,1.2-2.8,2.5-4.1,4.1l-6.9,31.1H81l6.1-27c0.2-0.8,0.4-1.9,0.7-3.2c0.3-1.3,0.4-2.4,0.4-3.3
	c0-1.7-0.3-2.9-1-3.5c-0.7-0.6-1.9-0.9-3.8-0.9c-0.9,0-1.9,0.1-2.9,0.4c-1,0.3-1.8,0.6-2.5,0.8l1-4c2.4-1,4.6-1.8,6.8-2.5
	c2.2-0.7,4.2-1,6.2-1c3.5,0,6,0.7,7.8,2c1.7,1.4,2.8,3.3,3.4,5.7h0.3c2.9-3.1,5.4-5.2,7.4-6.4c2-1.2,4.2-1.8,6.5-1.8
	c2.5,0,4.5,0.8,5.9,2.4C124.6,125.8,125.3,128.1,125.3,131z"/>
<path style="fill:#48DBC1;" d="M157.1,161h-0.4c-1,0.9-2,1.7-2.9,2.4c-0.9,0.7-2.1,1.5-3.5,2.2c-1.2,0.6-2.5,1.2-3.9,1.6
	c-1.4,0.4-2.9,0.6-4.5,0.6c-5.1,0-8.9-1.5-11.5-4.5c-2.6-3-3.9-7.1-3.9-12.3c0-4,0.7-7.8,2.2-11.3c1.4-3.5,3.4-6.6,5.8-9.3
	c2.4-2.6,5.3-4.7,8.5-6.3c3.3-1.5,6.7-2.3,10.3-2.3c2.6,0,5,0.3,6.9,0.9c2,0.6,3.6,1.5,4.9,2.5l13.5-2.8l0.6,0.7l-6.5,27
	c-0.2,0.9-0.5,2-0.7,3.4c-0.3,1.4-0.4,2.4-0.4,3.1c0,1.7,0.4,2.8,1.1,3.5c0.8,0.6,2.1,0.9,4,0.9c0.8,0,1.8-0.2,3-0.5
	c1.2-0.3,2-0.6,2.4-0.8l-1,4c-2.9,1.1-5.2,2-7,2.6c-1.7,0.6-3.8,0.9-6,0.9c-3,0-5.4-0.6-7.2-1.8C159,164.4,157.8,162.9,157.1,161z
	 M162.3,133.1c0-0.6-0.1-1.4-0.3-2.3c-0.2-0.9-0.5-1.6-0.9-2.2c-0.5-0.8-1.2-1.3-2.1-1.7c-0.9-0.4-1.9-0.6-3.2-0.6
	c-1.9,0-3.7,0.7-5.3,2.1c-1.6,1.4-3.1,3.2-4.3,5.6c-1.2,2.3-2.2,4.9-2.9,8c-0.7,3-1.1,6.1-1.1,9.3c0,1.4,0.1,2.8,0.3,4
	c0.2,1.2,0.6,2.3,1.1,3.1c0.5,0.9,1.2,1.6,2.1,2.1c0.9,0.5,2,0.7,3.4,0.7c1.4,0,2.7-0.4,4-1.2c1.3-0.8,2.5-1.8,3.5-3L162.3,133.1z"
	/>
<path style="fill:#48DBC1;" d="M219.2,159.5h-0.3c-3.1,2.8-6,4.9-8.8,6.3c-2.8,1.4-6,2-9.7,2c-3.3,0-5.8-0.9-7.5-2.7
	c-1.8-1.8-2.7-4-2.7-6.5c0-0.9,0.1-1.8,0.2-2.8c0.1-0.9,0.4-2.3,0.8-4l3.3-12.4c0.2-0.8,0.4-1.9,0.7-3.4c0.3-1.4,0.4-2.5,0.4-3.1
	c0-1.6-0.3-2.8-1-3.4c-0.7-0.7-1.9-1-3.9-1c-0.9,0-1.9,0.1-2.9,0.4c-1,0.3-1.8,0.6-2.5,0.8l1-4c2.4-1,4.6-1.8,6.8-2.5
	c2.2-0.7,4.2-1,6.2-1c3.5,0,6.2,0.9,8.1,2.6c1.9,1.7,2.8,3.9,2.8,6.5c0,0.5-0.1,1.5-0.2,2.9c-0.1,1.4-0.4,2.7-0.7,3.9l-3.2,11.7
	c-0.3,1-0.5,2.1-0.7,3.3c-0.2,1.2-0.3,2-0.3,2.6c0,1.4,0.3,2.5,1,3.3c0.6,0.8,1.8,1.2,3.3,1.2c1.1,0,2.7-0.5,4.5-1.4
	c1.9-1,3.8-2.3,5.6-4.1l7.3-31.7l14-0.6l0.5,0.6l-6.2,27c-0.2,0.8-0.4,2-0.7,3.4c-0.3,1.4-0.4,2.4-0.4,3.1c0,1.7,0.4,2.9,1.1,3.5
	c0.7,0.6,2.1,0.9,3.9,0.9c0.9,0,1.9-0.2,3-0.5c1.1-0.3,1.9-0.6,2.4-0.8l-1,4c-2.9,1.1-5.2,2-7,2.6c-1.7,0.6-3.7,0.9-6,0.9
	c-3.2,0-5.8-0.7-7.7-2.2C220.9,163.6,219.7,161.8,219.2,159.5z"/>
<path style="fill:#48DBC1;" d="M467,128.5c0,1.5-0.4,2.8-1.1,4c-0.7,1.2-1.9,1.7-3.4,1.7c-1.6,0-2.9-0.4-3.8-1.3
	c-0.9-0.9-1.3-1.8-1.3-2.8c0-0.6,0.1-1.2,0.2-1.8c0.1-0.5,0.2-1.1,0.3-1.6c-1.4,0-3,0.6-4.8,1.7c-1.8,1.1-3.4,2.7-4.7,4.7v25.2
	c0,1,0.2,1.9,0.6,2.5c0.4,0.6,1,1.1,1.9,1.5c0.7,0.3,1.7,0.5,2.8,0.7c1.2,0.1,2.2,0.2,3,0.3v2.9h-22.9v-2.9c0.7-0.1,1.4-0.1,2.1-0.2
	c0.7-0.1,1.3-0.2,1.9-0.4c0.8-0.3,1.4-0.7,1.8-1.4c0.4-0.7,0.6-1.5,0.6-2.6v-26.8c0-0.9-0.2-1.8-0.6-2.7c-0.4-0.9-1-1.6-1.8-2.1
	c-0.6-0.4-1.2-0.6-2-0.8s-1.6-0.3-2.5-0.3v-2.9l14.4-1l0.6,0.6v6.1h0.2c1.8-2.4,3.8-4.2,6.1-5.4c2.2-1.2,4.3-1.8,6.1-1.8
	c1.8,0,3.3,0.6,4.5,1.8C466.4,124.9,467,126.5,467,128.5z"/>
<path style="fill:#48DBC1;" d="M513.4,165.5c-1.4,0.5-2.6,0.9-3.6,1.2c-1,0.3-2.2,0.5-3.5,0.5c-2.3,0-4.1-0.5-5.5-1.6
	c-1.4-1.1-2.2-2.6-2.6-4.7h-0.3c-1.9,2.1-4,3.7-6.1,4.8c-2.2,1.1-4.8,1.7-7.9,1.7c-3.3,0-5.9-1-8-3c-2.1-2-3.1-4.6-3.1-7.8
	c0-1.7,0.2-3.2,0.7-4.5c0.5-1.3,1.2-2.5,2.1-3.6c0.7-0.9,1.7-1.7,2.9-2.4c1.2-0.7,2.3-1.2,3.4-1.6c1.3-0.5,4-1.4,8-2.8
	c4-1.3,6.8-2.4,8.2-3.2v-4.4c0-0.4-0.1-1.1-0.2-2.2c-0.2-1.1-0.5-2.1-1-3.1c-0.6-1.1-1.4-2-2.5-2.8c-1.1-0.8-2.6-1.2-4.6-1.2
	c-1.3,0-2.6,0.2-3.8,0.7c-1.2,0.5-2,0.9-2.4,1.4c0,0.6,0.1,1.5,0.4,2.6c0.3,1.1,0.4,2.2,0.4,3.2c0,1-0.5,2-1.4,2.8
	c-0.9,0.9-2.2,1.3-3.8,1.3c-1.5,0-2.5-0.5-3.2-1.6c-0.7-1-1-2.2-1-3.5c0-1.3,0.5-2.6,1.4-3.9s2.2-2.3,3.7-3.3
	c1.3-0.8,2.9-1.5,4.8-2.1s3.7-0.9,5.5-0.9c2.5,0,4.6,0.2,6.4,0.5c1.8,0.3,3.5,1.1,5,2.2c1.5,1.1,2.6,2.6,3.4,4.4
	c0.8,1.9,1.2,4.3,1.2,7.2c0,4.2,0,7.9-0.1,11.1c-0.1,3.2-0.1,6.8-0.1,10.6c0,1.1,0.2,2.1,0.6,2.7c0.4,0.7,1,1.2,1.8,1.7
	c0.4,0.3,1.1,0.4,2.1,0.4c1,0,1.9,0,2.9,0V165.5z M498,142.3c-2.5,0.7-4.7,1.5-6.6,2.2c-1.9,0.7-3.6,1.6-5.2,2.6
	c-1.5,1-2.6,2.2-3.5,3.5c-0.9,1.4-1.3,3-1.3,4.9c0,2.4,0.6,4.2,1.9,5.4c1.3,1.1,2.9,1.7,4.9,1.7c2.1,0,3.9-0.5,5.5-1.5
	c1.6-1,2.9-2.2,4-3.6L498,142.3z"/>
<path style="fill:#48DBC1;" d="M552.9,161.8c1.2,1.1,2.1,2.4,2.8,3.8c0.7,1.4,1,3.2,1,5.2c0,2.1-0.5,4-1.4,5.9
	c-0.9,1.8-2.3,3.4-4.1,4.8c-2,1.4-4.3,2.4-7,3.2c-2.7,0.8-6.1,1.1-10.1,1.1c-6.6,0-11.5-1-14.7-2.9c-3.3-1.9-4.9-4.7-4.9-8.4
	c0-3,1.2-5.4,3.5-7.1c2.3-1.7,5.3-2.7,9-2.8V164c-0.9-0.3-1.8-0.6-2.7-1c-0.9-0.4-1.7-0.9-2.4-1.4c-0.8-0.6-1.4-1.3-1.8-2.2
	c-0.5-0.8-0.7-1.9-0.7-3.1c0-1.6,0.5-3,1.6-4.3c1.1-1.3,2.8-2.4,5-3.4v-0.7c-2.8-1.3-5-3-6.6-5.1c-1.6-2.1-2.3-4.5-2.3-7.2
	c0-4.1,1.5-7.5,4.6-10.1c3.1-2.6,7-4,11.8-4c1.3,0,2.6,0.1,3.9,0.4c1.3,0.3,2.6,0.6,4,1h15.1v4.2h-10.2v0.3c1.1,1.3,1.9,2.7,2.4,4.2
	c0.5,1.5,0.8,3,0.8,4.5c0,3.8-1.5,7-4.6,9.7c-3.1,2.6-6.7,4-10.8,4h-5.3c-0.7,0.2-1.4,0.7-2.1,1.3c-0.7,0.6-1.1,1.5-1.1,2.5
	c0,1.1,0.3,1.9,0.9,2.5c0.6,0.6,1.4,1,2.2,1.2c0.9,0.2,1.8,0.4,3,0.4c1.1,0.1,2.3,0.1,3.5,0.1c1.3,0,3.1,0.1,5.3,0.3
	c2.2,0.1,3.8,0.2,4.8,0.3c1.3,0.1,2.7,0.4,4.1,1C550.5,160,551.8,160.8,552.9,161.8z M549.5,172.5c0-1.6-0.4-3-1.1-4
	c-0.8-1.1-1.9-1.8-3.5-2.2c-0.8-0.1-2.5-0.2-5.1-0.4c-2.6-0.1-5.5-0.2-8.9-0.2c-3.2,0.6-5.4,1.6-6.8,3.1c-1.3,1.5-2,3.3-2,5.6
	c0,1,0.2,2,0.7,2.9c0.4,0.9,1.2,1.8,2.3,2.6c1,0.8,2.4,1.4,4.1,1.9c1.7,0.5,3.8,0.7,6.3,0.7c4.3,0,7.7-0.8,10.2-2.5
	C548.2,178.4,549.5,175.8,549.5,172.5z M541,136.1c0-3.4-0.7-6.2-2.1-8.2c-1.4-2-3.4-3.1-5.9-3.1c-1.4,0-2.6,0.3-3.5,0.9
	c-1,0.6-1.8,1.4-2.4,2.4c-0.6,1-1,2.1-1.3,3.5c-0.2,1.4-0.4,2.8-0.4,4.2c0,3.3,0.7,5.9,2.1,8c1.4,2.1,3.3,3.1,5.5,3.1
	c2.5,0,4.5-1,5.8-3.1C540.3,141.8,541,139.2,541,136.1z"/>
<path style="fill:#48DBC1;" d="M597.3,156.1c-1.8,3.5-4.3,6.2-7.3,8.3c-3,2.1-6.6,3.1-10.5,3.1c-3.5,0-6.5-0.6-9.2-1.8
	c-2.6-1.2-4.8-2.9-6.5-5c-1.7-2.1-3-4.6-3.8-7.4c-0.8-2.8-1.3-5.8-1.3-8.9c0-2.8,0.4-5.6,1.3-8.3c0.9-2.7,2.2-5.2,3.9-7.3
	c1.7-2.1,3.7-3.8,6.2-5c2.5-1.3,5.3-1.9,8.3-1.9c3.2,0,5.9,0.5,8.1,1.5c2.3,1,4.1,2.4,5.5,4.1c1.3,1.6,2.4,3.6,3,5.8
	c0.7,2.2,1,4.6,1,7.3v2.9h-28.7c0,2.9,0.3,5.4,0.8,7.8c0.5,2.3,1.4,4.4,2.6,6.1c1.1,1.7,2.6,3,4.5,4c1.8,1,4,1.5,6.6,1.5
	c2.6,0,4.9-0.6,6.8-1.8c1.9-1.2,3.7-3.4,5.5-6.6L597.3,156.1z M587.6,139.6c0-1.6-0.1-3.4-0.4-5.3c-0.3-1.9-0.7-3.4-1.3-4.7
	c-0.7-1.3-1.6-2.4-2.8-3.3c-1.2-0.8-2.7-1.3-4.5-1.3c-3.1,0-5.6,1.3-7.7,3.8c-2,2.6-3.1,6.1-3.3,10.7H587.6z"/>
<path style="fill:#48DBC1;" d="M650.2,166.3H629v-2.9c0.7-0.1,1.4-0.1,2.2-0.2c0.8-0.1,1.5-0.2,2-0.4c0.8-0.3,1.4-0.7,1.8-1.4
	c0.4-0.7,0.6-1.5,0.6-2.6v-22.3c0-3.1-0.7-5.5-2.2-7.1c-1.5-1.7-3.2-2.5-5.3-2.5c-1.6,0-3,0.2-4.3,0.7c-1.3,0.5-2.4,1.1-3.4,1.8
	c-1,0.7-1.7,1.4-2.3,2.2c-0.6,0.8-1,1.4-1.3,1.9v24.9c0,1,0.2,1.8,0.6,2.5c0.4,0.6,1,1.1,1.8,1.5c0.6,0.3,1.3,0.5,2,0.7
	c0.7,0.1,1.5,0.2,2.2,0.3v2.9h-21.2v-2.9c0.7-0.1,1.4-0.1,2.1-0.2c0.7-0.1,1.3-0.2,1.9-0.4c0.8-0.3,1.4-0.7,1.8-1.4
	c0.4-0.7,0.6-1.5,0.6-2.6v-26.8c0-1-0.2-1.9-0.6-2.7c-0.4-0.8-1-1.5-1.8-2c-0.6-0.4-1.2-0.6-2-0.8c-0.8-0.2-1.6-0.3-2.5-0.3v-2.9
	l14.4-1l0.6,0.6v6.1h0.2c0.7-0.7,1.6-1.5,2.6-2.5c1.1-1,2.1-1.8,3-2.4c1.1-0.7,2.4-1.3,3.9-1.8c1.5-0.5,3.2-0.7,5.1-0.7
	c4.2,0,7.2,1.3,9.3,3.9c2,2.6,3,6,3,10.4v22.6c0,1,0.2,1.9,0.5,2.5c0.4,0.6,1,1.1,1.8,1.5c0.7,0.3,1.3,0.5,1.8,0.6
	c0.5,0.1,1.2,0.2,2.1,0.3V166.3z"/>
<path style="fill:#48DBC1;" d="M700.8,165.5l-15.2,1l-0.7-0.6v-4l-0.4-0.1c-1.5,1.7-3.4,3.1-5.6,4.2c-2.2,1.1-4.5,1.6-6.9,1.6
	c-2.5,0-4.8-0.5-7.1-1.6c-2.3-1.1-4.3-2.6-6-4.6c-1.7-2-3.1-4.5-4.1-7.3c-1-2.8-1.5-6-1.5-9.4c0-3.1,0.5-6.1,1.6-8.9
	c1.1-2.8,2.6-5.3,4.5-7.4c1.8-2,4-3.5,6.6-4.7c2.6-1.2,5.2-1.8,7.9-1.8c2,0,4,0.3,6,0.8c1.9,0.5,3.6,1.2,5,2v-15.1
	c0-1.2-0.2-2.4-0.6-3.4c-0.4-1-1-1.8-1.7-2.3c-0.8-0.6-1.9-1-3.3-1.2c-1.4-0.3-2.9-0.4-4.5-0.6v-2.7l17.8-1l0.7,0.7v58.5
	c0,1,0.2,1.9,0.6,2.6c0.4,0.7,1,1.3,1.7,1.8c0.6,0.4,1.4,0.6,2.4,0.7c1.1,0.1,2,0.1,2.9,0.2V165.5z M684.9,157.9v-25.4
	c-0.2-0.8-0.6-1.6-1.1-2.5c-0.5-0.9-1.2-1.7-2-2.4c-0.8-0.7-1.8-1.3-3-1.8c-1.1-0.5-2.5-0.7-4-0.7c-1.8,0-3.4,0.5-4.9,1.4
	c-1.5,0.9-2.8,2.2-3.9,3.9c-1.1,1.6-1.9,3.7-2.6,6.3c-0.6,2.5-0.9,5.3-0.9,8.4c0,2.5,0.2,4.7,0.7,6.7c0.5,2,1.3,3.9,2.4,5.6
	c1,1.6,2.3,3,3.9,4c1.6,1,3.5,1.5,5.7,1.5c2.3,0,4.3-0.5,5.8-1.5C682.5,160.3,683.8,159.1,684.9,157.9z"/>
<g>
	<path style="fill:#FFFFFF;" d="M317.1,126.9c-1.2,0.2-2.5,0.7-3.6,1.4c-1.2,0.7-2.2,1.9-2.9,3.5c-1.9,4-3.8,8.1-5.7,12.2
		c-1.9,4.1-3.7,8.1-5.5,11.9c-0.6,1.2-1.2,2.7-1.9,4.5c-0.7,1.8-1.3,3.5-1.8,5H288c-3.2-7.4-5.9-13.5-8.2-18.4
		c-2.3-4.9-4.6-10.1-7.2-15.7c-0.6-1.3-1.5-2.3-2.7-3.1c-1.2-0.7-2.5-1.2-3.8-1.4v-3h25.6v3c-0.9,0-2,0.2-3.3,0.6
		c-1.3,0.4-1.9,0.9-1.9,1.5c0,0.2,0.1,0.4,0.2,0.7c0.1,0.3,0.2,0.7,0.4,1.1c0.9,2.1,2.2,5.1,4,9.1c1.8,4,3.7,8.1,5.7,12.5
		c1.4-3,2.7-6,4-8.9c1.3-2.9,2.8-6.6,4.7-11.1c0.2-0.7,0.4-1.2,0.4-1.6c0-0.4,0.1-0.7,0.1-0.8c0-0.5-0.2-0.9-0.7-1.3
		c-0.5-0.4-1.1-0.7-1.7-1c-0.7-0.3-1.4-0.5-2-0.6c-0.6-0.1-1.2-0.2-1.6-0.3v-3h17.2V126.9z"/>
	<path style="fill:#FFFFFF;" d="M412.1,131.5c0,2.1-0.7,4-2,5.5c-1.3,1.6-3,2.4-5.2,2.4c-2,0-3.7-0.5-5.1-1.5
		c-1.4-1-2.1-2.5-2.1-4.5c0-1,0.1-1.7,0.2-2.3c0.1-0.5,0.3-1,0.4-1.5c-1.3,0.1-2.6,0.5-4,1.3c-1.4,0.8-2.7,1.9-3.7,3.3v22.8
		c0,1,0.2,1.8,0.5,2.4c0.3,0.6,0.8,1.1,1.5,1.5c0.6,0.3,1.6,0.6,3,0.8c1.4,0.2,2.4,0.3,3,0.4v3h-27.8v-3c0.7-0.1,1.4-0.1,2.1-0.2
		c0.7-0.1,1.3-0.2,1.8-0.4c0.9-0.3,1.5-0.8,1.8-1.4c0.3-0.6,0.5-1.5,0.5-2.5v-24.2c0-1-0.2-1.9-0.7-2.7c-0.5-0.8-1-1.4-1.7-1.9
		c-0.5-0.3-1.1-0.6-1.9-0.8c-0.8-0.2-1.6-0.4-2.5-0.5v-3l19.8-1.1l0.6,0.6v6h0.2c1.9-2.2,3.9-4,6.1-5.2c2.1-1.3,4.4-1.9,6.7-1.9
		c2.6,0,4.6,0.8,6.2,2.4C411.3,126.9,412.1,129,412.1,131.5z"/>
	<g>
		<path style="fill:#FFFFFF;" d="M359.4,128.4c2.1,2,3.7,4.3,4.9,7.1c1.1,2.8,1.7,5.7,1.7,9c0,3.2-0.6,6.2-1.7,9
			c-1.1,2.8-2.7,5.2-4.8,7.3c-2.3,2.2-5,3.8-8.1,5c-3.1,1.1-6.7,1.7-10.8,1.7c-3.5,0-6.7-0.5-9.7-1.5c-2.9-1-5.5-2.5-7.8-4.5
			c-2.2-1.9-3.9-4.3-5.2-7.1c-1.3-2.8-1.9-6-1.9-9.5c0-3.4,0.6-6.5,1.7-9.2c1.1-2.7,2.8-5.1,5-7.2c2.1-2,4.7-3.6,7.9-4.7
			c3.1-1.1,6.6-1.7,10.4-1.7c4,0,7.6,0.6,10.6,1.7C354.6,124.9,357.2,126.4,359.4,128.4z M348.4,158.3c0.6-1.6,1.1-3.6,1.4-5.9
			c0.3-2.3,0.5-5,0.5-8c0-2-0.1-4.3-0.4-6.9c-0.3-2.6-0.7-4.6-1.3-6.1c-0.7-1.8-1.6-3.2-2.9-4.3c-1.2-1-2.8-1.5-4.6-1.5
			c-2,0-3.7,0.6-4.9,1.7c-1.2,1.1-2.2,2.6-2.8,4.3c-0.6,1.6-1,3.6-1.2,5.7c-0.2,2.2-0.3,4.5-0.3,6.9c0,3.1,0.1,5.7,0.3,7.8
			c0.2,2.1,0.7,4.1,1.5,6.2c0.7,1.8,1.6,3.2,2.8,4.2c1.2,1,2.8,1.6,4.7,1.6c1.7,0,3.2-0.5,4.4-1.4
			C346.7,161.5,347.7,160.1,348.4,158.3z"/>
	</g>
</g>
</svg>
